<svg version="1.2" xmlns="http://www.w3.org/2000/svg" viewBox="0 0 372 102" width="372" height="102">
	<title>file-svg</title>
	<style>
		.s0 { fill: #93deff } 
	</style>
	<g id="Layer">
		<g id="Layer">
			<g id="Layer">
				<path id="Layer" class="s0" d="m5.9 67.1c0 12.8 7.5 20.3 25 20.3 6.5 0 13.2-0.8 19-2.3l-1.4-11.5c-5.7 1.1-12.4 1.8-17.2 1.8-9.2 0-12.1-3.2-12.1-10.7v-26.9c0-7.5 2.9-10.7 12.1-10.7 4.8 0 11.5 0.8 17.2 1.8l1.4-11.4c-5.8-1.5-12.5-2.4-19-2.4-17.5 0-25 7.5-25 20.4z"/>
			</g>
		</g>
	</g>
	<g id="Layer">
		<g id="Layer">
			<g id="Layer">
				<path id="Layer" class="s0" d="m73 86.3v-51.3h-12.9v51.3zm0-58.5v-14.9h-12.8v14.9z"/>
			</g>
		</g>
	</g>
	<g id="Layer">
		<g id="Layer">
			<g id="Layer">
				<path id="Layer" class="s0" d="m111 34c-4.5 1.3-10.6 4.8-13.5 6.7l-0.8-5.7h-10.9v51.3h12.9v-33c4.6-3 8.6-5.3 13.6-7.5z"/>
			</g>
		</g>
	</g>
	<g id="Layer">
		<g id="Layer">
			<g id="Layer">
				<path id="Layer" class="s0" d="m138.8 87.4c4.2 0 9.2-0.7 12.5-1.9l-1.6-10.5c-3.6 0.9-7.3 1.3-10.6 1.3-7.4 0-9.6-2.2-9.6-8.5v-14.2c0-6.3 2.2-8.5 9.6-8.5 2.5 0 7.2 0.4 10.6 1.3l1.6-10.5c-3.8-1.3-8.9-1.9-12.5-1.9-16.1 0-22.1 5.9-22.1 19.7v14c0 13.8 6 19.7 22.1 19.7z"/>
			</g>
		</g>
	</g>
	<g id="Layer">
		<g id="Layer">
			<g id="Layer">
				<path id="Layer" class="s0" d="m160.7 35v37.2c0 9.2 3 15.2 11.6 15.2 6 0 14.1-2.2 20.5-5.4l1.3 4.3h9.8v-51.3h-12.9v35.6c-4.6 2.5-10.2 4.4-13.4 4.4-2.9 0-4.1-1.4-4.1-4.1v-35.9z"/>
			</g>
		</g>
	</g>
	<g id="Layer">
		<g id="Layer">
			<g id="Layer">
				<path id="Layer" class="s0" d="m229.5 86.3v-74l-12.8 1.8v72.2z"/>
			</g>
		</g>
	</g>
	<g id="Layer">
		<g id="Layer">
			<g id="Layer">
				<path id="Layer" fill-rule="evenodd" class="s0" d="m280.4 86.3h-10.5l-1-3.4c-4.6 3-10.1 4.5-15.2 4.5-9.4 0-13.4-6.4-13.4-15.3 0-10.4 4.5-14.4 14.9-14.4h12.4v-5.4c0-5.7-1.6-7.7-9.8-7.7-4.7 0-9.7 0.7-14.3 1.6l-1.5-9.8c4.8-1.5 11.9-2.4 17.6-2.4 16.1 0 20.8 5.7 20.8 18.5zm-12.8-19.4h-9.5c-4.2 0-5.4 1.2-5.4 5.1 0 3.6 1.2 5.2 5.2 5.2 3.8 0 7.2-1.3 9.7-2.7z"/>
			</g>
		</g>
	</g>
	<g id="Layer">
		<g id="Layer">
			<g id="Layer">
				<path id="Layer" class="s0" d="m318 75.6c-2.2 0.6-4.5 1.1-6.4 1.1-3.4 0-4.7-1.8-4.7-4.6v-26.8h12.4l0.8-10.3h-13.2v-14.5l-12.8 1.8v12.7h-7.7v10.3h7.7v28.5c0 9.2 4.7 13.6 14.1 13.6 3.3 0 8.5-0.8 11.3-2z"/>
			</g>
		</g>
	</g>
	<g id="Layer">
		<g id="Layer">
			<g id="Layer">
				<path id="Layer" fill-rule="evenodd" class="s0" d="m348.2 76.9c5 0 10.1-0.8 15.7-2.5l2 9.7c-5.8 2.2-12.7 3.3-18.8 3.3-16.2 0-21.7-7.5-21.7-19.8v-13.6c0-10.8 4.8-20 21.2-20 16.5 0 20.2 9.6 20.2 20.6v11h-28.6v2.6c0 6.2 2.2 8.7 10 8.7zm-10-21.6h16.3v-2.6c0-4.8-1.4-8.2-7.8-8.2-6.3 0-8.5 3.4-8.5 8.2z"/>
			</g>
		</g>
	</g>
</svg>