<svg xmlns="http://www.w3.org/2000/svg" xmlns:xlink="http://www.w3.org/1999/xlink" width="495" zoomAndPan="magnify" viewBox="0 0 371.25 170.249993" height="227" preserveAspectRatio="xMidYMid meet" version="1.0"><defs><g/></defs><g fill="#ff6e11" fill-opacity="1"><g transform="translate(-0.42065, 108.343587)"><g><path d="M 6.320312 -19.277344 C 6.320312 -6.425781 13.796875 1.054688 31.285156 1.054688 C 37.8125 1.054688 44.554688 0.210938 50.347656 -1.265625 L 48.875 -12.746094 C 43.1875 -11.691406 36.550781 -10.953125 31.703125 -10.953125 C 22.539062 -10.953125 19.589844 -14.113281 19.589844 -21.59375 L 19.589844 -48.558594 C 19.589844 -56.035156 22.539062 -59.195312 31.703125 -59.195312 C 36.550781 -59.195312 43.1875 -58.457031 48.875 -57.40625 L 50.347656 -68.886719 C 44.554688 -70.359375 37.8125 -71.203125 31.285156 -71.203125 C 13.796875 -71.203125 6.320312 -63.726562 6.320312 -50.875 Z M 6.320312 -19.277344 "/></g></g></g><g fill="#ff6e11" fill-opacity="1"><g transform="translate(52.752875, 108.343587)"><g><path d="M 20.222656 0 L 20.222656 -51.296875 L 7.375 -51.296875 L 7.375 0 Z M 20.222656 -58.5625 L 20.222656 -73.414062 L 7.375 -73.414062 L 7.375 -58.5625 Z M 20.222656 -58.5625 "/></g></g></g><g fill="#ff6e11" fill-opacity="1"><g transform="translate(78.444117, 108.343587)"><g><path d="M 32.546875 -52.347656 C 28.019531 -51.085938 21.910156 -47.503906 19.066406 -45.609375 L 18.222656 -51.296875 L 7.375 -51.296875 L 7.375 0 L 20.222656 0 L 20.222656 -33.074219 C 24.859375 -36.023438 28.859375 -38.339844 33.8125 -40.550781 Z M 32.546875 -52.347656 "/></g></g></g><g fill="#ff6e11" fill-opacity="1"><g transform="translate(111.611351, 108.343587)"><g><path d="M 27.175781 1.054688 C 31.390625 1.054688 36.339844 0.316406 39.710938 -0.84375 L 38.128906 -11.375 C 34.441406 -10.429688 30.757812 -10.007812 27.492188 -10.007812 C 20.117188 -10.007812 17.90625 -12.21875 17.90625 -18.539062 L 17.90625 -32.757812 C 17.90625 -39.078125 20.117188 -41.289062 27.492188 -41.289062 C 30.019531 -41.289062 34.652344 -40.867188 38.128906 -39.921875 L 39.710938 -50.453125 C 35.917969 -51.71875 30.757812 -52.347656 27.175781 -52.347656 C 11.058594 -52.347656 5.054688 -46.449219 5.054688 -32.652344 L 5.054688 -18.644531 C 5.054688 -4.84375 11.058594 1.054688 27.175781 1.054688 Z M 27.175781 1.054688 "/></g></g></g><g fill="#ff6e11" fill-opacity="1"><g transform="translate(153.83406, 108.343587)"><g><path d="M 6.847656 -51.296875 L 6.847656 -14.113281 C 6.847656 -4.949219 9.902344 1.054688 18.433594 1.054688 C 24.4375 1.054688 32.546875 -1.160156 38.972656 -4.320312 L 40.238281 0 L 50.03125 0 L 50.03125 -51.296875 L 37.183594 -51.296875 L 37.183594 -15.695312 C 32.546875 -13.273438 26.964844 -11.375 23.804688 -11.375 C 20.855469 -11.375 19.695312 -12.746094 19.695312 -15.484375 L 19.695312 -51.296875 Z M 6.847656 -51.296875 "/></g></g></g><g fill="#ff6e11" fill-opacity="1"><g transform="translate(209.324117, 108.343587)"><g><path d="M 20.222656 0 L 20.222656 -74.046875 L 7.375 -72.257812 L 7.375 0 Z M 20.222656 0 "/></g></g></g><g fill="#ff6e11" fill-opacity="1"><g transform="translate(235.015371, 108.343587)"><g><path d="M 45.398438 -33.8125 C 45.398438 -46.660156 40.65625 -52.347656 24.542969 -52.347656 C 18.855469 -52.347656 11.796875 -51.402344 6.953125 -49.925781 L 8.53125 -40.132812 C 13.0625 -41.078125 18.117188 -41.710938 22.75 -41.710938 C 30.96875 -41.710938 32.546875 -39.710938 32.546875 -34.023438 L 32.546875 -28.648438 L 20.222656 -28.648438 C 9.796875 -28.648438 5.265625 -24.648438 5.265625 -14.21875 C 5.265625 -5.371094 9.269531 1.054688 18.644531 1.054688 C 23.804688 1.054688 29.28125 -0.421875 33.917969 -3.476562 L 34.863281 0 L 45.398438 0 Z M 32.546875 -11.796875 C 30.125 -10.429688 26.648438 -9.164062 22.855469 -9.164062 C 18.855469 -9.164062 17.695312 -10.742188 17.695312 -14.324219 C 17.695312 -18.222656 18.855469 -19.382812 23.066406 -19.382812 L 32.546875 -19.382812 Z M 32.546875 -11.796875 "/></g></g></g><g fill="#ff6e11" fill-opacity="1"><g transform="translate(284.81941, 108.343587)"><g><path d="M 33.179688 -10.742188 C 30.96875 -10.113281 28.648438 -9.691406 26.753906 -9.691406 C 23.382812 -9.691406 22.121094 -11.480469 22.121094 -14.21875 L 22.121094 -41.078125 L 34.441406 -41.078125 L 35.285156 -51.296875 L 22.121094 -51.296875 L 22.121094 -65.832031 L 9.269531 -64.042969 L 9.269531 -51.296875 L 1.578125 -51.296875 L 1.578125 -41.078125 L 9.269531 -41.078125 L 9.269531 -12.535156 C 9.269531 -3.371094 14.007812 1.054688 23.382812 1.054688 C 26.648438 1.054688 31.914062 0.210938 34.652344 -0.949219 Z M 33.179688 -10.742188 "/></g></g></g><g fill="#ff6e11" fill-opacity="1"><g transform="translate(320.303176, 108.343587)"><g><path d="M 17.90625 -18.117188 L 17.90625 -20.75 L 46.449219 -20.75 L 46.449219 -31.703125 C 46.449219 -42.765625 42.765625 -52.347656 26.332031 -52.347656 C 9.902344 -52.347656 5.054688 -43.1875 5.054688 -32.335938 L 5.054688 -18.75 C 5.054688 -6.425781 10.636719 1.054688 26.753906 1.054688 C 32.863281 1.054688 39.816406 0 45.609375 -2.210938 L 43.605469 -11.902344 C 38.023438 -10.21875 32.863281 -9.480469 27.914062 -9.480469 C 20.117188 -9.480469 17.90625 -11.902344 17.90625 -18.117188 Z M 17.90625 -33.601562 C 17.90625 -38.445312 20.117188 -41.816406 26.4375 -41.816406 C 32.757812 -41.816406 34.234375 -38.445312 34.234375 -33.601562 L 34.234375 -31.074219 L 17.90625 -31.074219 Z M 17.90625 -33.601562 "/></g></g></g></svg>