<svg xmlns="http://www.w3.org/2000/svg" xmlns:xlink="http://www.w3.org/1999/xlink" width="495" zoomAndPan="magnify" viewBox="0 0 371.25 170.249993" height="227" preserveAspectRatio="xMidYMid meet" version="1.0"><defs><g/><clipPath id="46d26f2bdb"><path d="M 313.070312 58 L 368.703125 58 L 368.703125 115.359375 L 313.070312 115.359375 Z M 313.070312 58 " clip-rule="nonzero"/></clipPath></defs><g clip-path="url(#46d26f2bdb)"><path fill="#ff6e11" d="M 313.070312 81.128906 C 313.347656 80.449219 313.597656 79.757812 313.90625 79.09375 C 316.222656 74.101562 319.757812 70.167969 324.472656 67.316406 C 329.59375 64.21875 335.148438 62.890625 341.140625 63.570312 C 345.246094 64.039062 349.042969 65.386719 352.359375 67.839844 C 359.597656 73.199219 363.210938 80.332031 362.671875 89.382812 C 362.488281 92.507812 361.539062 95.4375 360 98.164062 C 357.789062 102.085938 354.648438 105.058594 350.613281 107.078125 C 346.363281 109.207031 341.871094 109.953125 337.207031 108.96875 C 330.664062 107.589844 325.988281 103.785156 323.226562 97.734375 C 321.574219 94.109375 321.195312 90.3125 322.105469 86.421875 C 323.789062 79.191406 329.988281 74.320312 336.4375 73.613281 C 339.621094 73.265625 342.660156 73.761719 345.394531 75.414062 C 350.300781 78.371094 352.875 82.6875 352.539062 88.484375 C 352.363281 91.503906 351.101562 94.109375 348.839844 96.136719 C 345.679688 98.972656 342.039062 100.074219 337.882812 98.695312 C 333.863281 97.359375 331.285156 93.175781 331.851562 89.308594 C 332.300781 86.257812 334.824219 83.796875 337.917969 83.558594 C 339.847656 83.410156 341.742188 84.609375 342.367188 86.429688 C 342.523438 86.875 342.460938 87.597656 342.390625 87.953125 L 342.28125 87.679688 C 341.359375 85.628906 338.175781 85.457031 336.730469 87.03125 C 335.902344 87.929688 335.59375 88.972656 335.625 90.167969 C 335.679688 92.558594 337.4375 94.628906 339.800781 95.039062 C 342.398438 95.496094 344.558594 94.628906 346.3125 92.765625 C 348.585938 90.355469 348.988281 86.605469 347.4375 83.488281 C 345.035156 78.660156 339.59375 76.722656 334.679688 78.339844 C 328.894531 80.246094 325.351562 85.777344 326.042969 91.839844 C 326.523438 96.027344 328.515625 99.421875 331.882812 101.960938 C 336.949219 105.785156 343.96875 106.074219 349.566406 102.769531 C 356.003906 98.96875 359.351562 91.992188 358.199219 84.625 C 357.449219 79.816406 355.175781 75.789062 351.460938 72.636719 C 346.445312 68.375 340.601562 66.898438 334.167969 68.144531 C 327.476562 69.4375 322.375 73.105469 318.953125 78.90625 C 316.195312 83.578125 315.246094 89.070312 316.195312 94.402344 C 317.273438 100.453125 320.242188 105.429688 324.941406 109.355469 C 328.714844 112.503906 333.085938 114.332031 337.980469 114.945312 C 340.9375 115.316406 343.863281 115.167969 346.761719 114.53125 C 350.890625 113.628906 354.640625 111.882812 357.941406 109.246094 C 364.722656 103.839844 368.226562 96.769531 368.578125 88.160156 C 368.695312 85.183594 368.25 82.261719 367.410156 79.402344 C 366.066406 74.847656 363.789062 70.808594 360.542969 67.339844 C 360.488281 67.28125 360.4375 67.226562 360.382812 67.167969 C 347.824219 53.921875 325.929688 56.289062 316.695312 72.011719 C 313.832031 76.886719 313.070312 81.128906 313.070312 81.128906 Z M 313.070312 81.128906 " fill-opacity="1" fill-rule="nonzero"/></g><g fill="#ff6e11" fill-opacity="1"><g transform="translate(2.567977, 112.428301)"><g><path d="M 4.945312 -15.078125 C 4.945312 -5.027344 10.792969 0.824219 24.472656 0.824219 C 29.582031 0.824219 34.855469 0.164062 39.386719 -0.988281 L 38.234375 -9.96875 C 33.785156 -9.144531 28.59375 -8.570312 24.800781 -8.570312 C 17.632812 -8.570312 15.328125 -11.042969 15.328125 -16.890625 L 15.328125 -37.984375 C 15.328125 -43.835938 17.632812 -46.308594 24.800781 -46.308594 C 28.59375 -46.308594 33.785156 -45.730469 38.234375 -44.90625 L 39.386719 -53.890625 C 34.855469 -55.042969 29.582031 -55.703125 24.472656 -55.703125 C 10.792969 -55.703125 4.945312 -49.851562 4.945312 -39.800781 Z M 4.945312 -15.078125 "/></g></g></g><g fill="#ff6e11" fill-opacity="1"><g transform="translate(45.660449, 112.428301)"><g><path d="M 15.820312 0 L 15.820312 -40.128906 L 5.769531 -40.128906 L 5.769531 0 Z M 15.820312 -45.8125 L 15.820312 -57.433594 L 5.769531 -57.433594 L 5.769531 -45.8125 Z M 15.820312 -45.8125 "/></g></g></g><g fill="#ff6e11" fill-opacity="1"><g transform="translate(67.247885, 112.428301)"><g><path d="M 25.460938 -40.953125 C 21.917969 -39.964844 17.140625 -37.164062 14.914062 -35.679688 L 14.253906 -40.128906 L 5.769531 -40.128906 L 5.769531 0 L 15.820312 0 L 15.820312 -25.875 C 19.445312 -28.179688 22.578125 -29.992188 26.449219 -31.722656 Z M 25.460938 -40.953125 "/></g></g></g><g fill="#ff6e11" fill-opacity="1"><g transform="translate(94.685348, 112.428301)"><g><path d="M 21.257812 0.824219 C 24.554688 0.824219 28.429688 0.246094 31.066406 -0.660156 L 29.828125 -8.898438 C 26.945312 -8.15625 24.0625 -7.828125 21.507812 -7.828125 C 15.738281 -7.828125 14.007812 -9.558594 14.007812 -14.503906 L 14.007812 -25.625 C 14.007812 -30.570312 15.738281 -32.300781 21.507812 -32.300781 C 23.484375 -32.300781 27.109375 -31.972656 29.828125 -31.230469 L 31.066406 -39.46875 C 28.097656 -40.457031 24.0625 -40.953125 21.257812 -40.953125 C 8.652344 -40.953125 3.957031 -36.339844 3.957031 -25.542969 L 3.957031 -14.585938 C 3.957031 -3.789062 8.652344 0.824219 21.257812 0.824219 Z M 21.257812 0.824219 "/></g></g></g><g fill="#ff6e11" fill-opacity="1"><g transform="translate(129.208766, 112.428301)"><g><path d="M 5.355469 -40.128906 L 5.355469 -11.042969 C 5.355469 -3.871094 7.746094 0.824219 14.417969 0.824219 C 19.117188 0.824219 25.460938 -0.90625 30.488281 -3.378906 L 31.476562 0 L 39.140625 0 L 39.140625 -40.128906 L 29.085938 -40.128906 L 29.085938 -12.277344 C 25.460938 -10.382812 21.09375 -8.898438 18.621094 -8.898438 C 16.316406 -8.898438 15.410156 -9.96875 15.410156 -12.113281 L 15.410156 -40.128906 Z M 5.355469 -40.128906 "/></g></g></g><g fill="#ff6e11" fill-opacity="1"><g transform="translate(174.113928, 112.428301)"><g><path d="M 15.820312 0 L 15.820312 -57.925781 L 5.769531 -56.527344 L 5.769531 0 Z M 15.820312 0 "/></g></g></g><g fill="#ff6e11" fill-opacity="1"><g transform="translate(195.701376, 112.428301)"><g><path d="M 35.515625 -26.449219 C 35.515625 -36.503906 31.804688 -40.953125 19.199219 -40.953125 C 14.75 -40.953125 9.230469 -40.210938 5.4375 -39.058594 L 6.675781 -31.394531 C 10.21875 -32.136719 14.171875 -32.628906 17.796875 -32.628906 C 24.226562 -32.628906 25.460938 -31.066406 25.460938 -26.613281 L 25.460938 -22.414062 L 15.820312 -22.414062 C 7.664062 -22.414062 4.121094 -19.28125 4.121094 -11.125 C 4.121094 -4.203125 7.25 0.824219 14.585938 0.824219 C 18.621094 0.824219 22.90625 -0.328125 26.53125 -2.71875 L 27.273438 0 L 35.515625 0 Z M 25.460938 -9.230469 C 23.566406 -8.15625 20.847656 -7.167969 17.878906 -7.167969 C 14.75 -7.167969 13.84375 -8.40625 13.84375 -11.207031 C 13.84375 -14.253906 14.75 -15.160156 18.046875 -15.160156 L 25.460938 -15.160156 Z M 25.460938 -9.230469 "/></g></g></g><g fill="#ff6e11" fill-opacity="1"><g transform="translate(236.157232, 112.428301)"><g><path d="M 25.957031 -8.40625 C 24.226562 -7.910156 22.414062 -7.582031 20.929688 -7.582031 C 18.292969 -7.582031 17.304688 -8.980469 17.304688 -11.125 L 17.304688 -32.136719 L 26.945312 -32.136719 L 27.605469 -40.128906 L 17.304688 -40.128906 L 17.304688 -51.5 L 7.25 -50.097656 L 7.25 -40.128906 L 1.234375 -40.128906 L 1.234375 -32.136719 L 7.25 -32.136719 L 7.25 -9.804688 C 7.25 -2.636719 10.960938 0.824219 18.292969 0.824219 C 20.847656 0.824219 24.96875 0.164062 27.109375 -0.742188 Z M 25.957031 -8.40625 "/></g></g></g><g fill="#ff6e11" fill-opacity="1"><g transform="translate(265.407372, 112.428301)"><g><path d="M 14.007812 -14.171875 L 14.007812 -16.234375 L 36.339844 -16.234375 L 36.339844 -24.800781 C 36.339844 -33.453125 33.453125 -40.953125 20.601562 -40.953125 C 7.746094 -40.953125 3.957031 -33.785156 3.957031 -25.296875 L 3.957031 -14.667969 C 3.957031 -5.027344 8.324219 0.824219 20.929688 0.824219 C 25.707031 0.824219 31.148438 0 35.679688 -1.730469 L 34.113281 -9.3125 C 29.746094 -7.992188 25.707031 -7.414062 21.835938 -7.414062 C 15.738281 -7.414062 14.007812 -9.3125 14.007812 -14.171875 Z M 14.007812 -26.285156 C 14.007812 -30.074219 15.738281 -32.710938 20.683594 -32.710938 C 25.625 -32.710938 26.78125 -30.074219 26.78125 -26.285156 L 26.78125 -24.308594 L 14.007812 -24.308594 Z M 14.007812 -26.285156 "/></g></g></g></svg>