<svg version="1.2" xmlns="http://www.w3.org/2000/svg" viewBox="0 0 372 80" width="372" height="80">
	<title>file-svg</title>
	<defs>
		<clipPath clipPathUnits="userSpaceOnUse" id="cp1">
			<path d="m313.07 16h55.63v57.36h-55.63z"/>
		</clipPath>
	</defs>
	<style>
		.s0 { fill: #ffde59 } 
		.s1 { fill: #93deff } 
	</style>
	<g id="Clip-Path" clip-path="url(#cp1)">
		<g id="Layer">
			<path id="Layer" class="s0" d="m313.1 39.1c0.2-0.7 0.5-1.3 0.8-2q3.5-7.5 10.6-11.8c5.1-3.1 10.6-4.4 16.6-3.7 4.1 0.4 7.9 1.8 11.3 4.2 7.2 5.4 10.8 12.5 10.3 21.6-0.2 3.1-1.2 6-2.7 8.8q-3.3 5.8-9.4 8.9c-4.2 2.1-8.7 2.9-13.4 1.9-6.5-1.4-11.2-5.2-14-11.3-1.6-3.6-2-7.4-1.1-11.3 1.7-7.2 7.9-12.1 14.3-12.8 3.2-0.3 6.3 0.2 9 1.8 4.9 3 7.5 7.3 7.1 13.1-0.1 3-1.4 5.6-3.7 7.6-3.1 2.9-6.8 4-10.9 2.6-4-1.3-6.6-5.5-6-9.4 0.4-3 2.9-5.5 6-5.7 1.9-0.2 3.8 1 4.5 2.8 0.1 0.5 0.1 1.2 0 1.6l-0.1-0.3c-0.9-2.1-4.1-2.2-5.6-0.7-0.8 0.9-1.1 2-1.1 3.2 0.1 2.4 1.8 4.4 4.2 4.8 2.6 0.5 4.8-0.4 6.5-2.2 2.3-2.4 2.7-6.2 1.1-9.3-2.4-4.8-7.8-6.8-12.7-5.2-5.8 1.9-9.3 7.5-8.7 13.5 0.5 4.2 2.5 7.6 5.9 10.2 5 3.8 12.1 4.1 17.7 0.8 6.4-3.8 9.8-10.8 8.6-18.2-0.8-4.8-3-8.8-6.7-12-5.1-4.2-10.9-5.7-17.3-4.5-6.7 1.3-11.8 5-15.2 10.8-2.8 4.7-3.8 10.2-2.8 15.5 1.1 6.1 4 11 8.7 15 3.8 3.1 8.2 4.9 13.1 5.5q4.4 0.6 8.8-0.4c4.1-0.9 7.8-2.6 11.1-5.3 6.8-5.4 10.3-12.4 10.7-21 0.1-3-0.4-5.9-1.2-8.8-1.3-4.6-3.6-8.6-6.9-12.1q0 0-0.1-0.1c-12.6-13.3-34.5-10.9-43.7 4.8-2.9 4.9-3.6 9.1-3.6 9.1z"/>
		</g>
	</g>
	<g id="Layer">
		<g id="Layer">
			<g id="Layer">
				<path id="Layer" class="s1" d="m7.5 53.2c0 10.1 5.8 15.9 19.5 15.9 5.1 0 10.4-0.6 14.9-1.8l-1.1-9c-4.5 0.9-9.7 1.4-13.5 1.4-7.1 0-9.5-2.4-9.5-8.3v-21.1c0-5.8 2.4-8.3 9.5-8.3 3.8 0 9 0.6 13.5 1.4l1.1-9c-4.5-1.1-9.8-1.8-14.9-1.8-13.7 0-19.5 5.9-19.5 15.9z"/>
			</g>
		</g>
	</g>
	<g id="Layer">
		<g id="Layer">
			<g id="Layer">
				<path id="Layer" class="s1" d="m61.4 68.3v-40.1h-10v40.1zm0-45.8v-11.6h-10.1v11.6z"/>
			</g>
		</g>
	</g>
	<g id="Layer">
		<g id="Layer">
			<g id="Layer">
				<path id="Layer" class="s1" d="m92.7 27.4c-3.6 0.9-8.4 3.7-10.6 5.2l-0.6-4.4h-8.5v40.1h10v-25.9c3.7-2.3 6.8-4.1 10.7-5.8z"/>
			</g>
		</g>
	</g>
	<g id="Layer">
		<g id="Layer">
			<g id="Layer">
				<path id="Layer" class="s1" d="m115.9 69.1c3.3 0 7.2-0.5 9.8-1.5l-1.2-8.2c-2.9 0.7-5.8 1.1-8.3 1.1-5.8 0-7.5-1.8-7.5-6.7v-11.1c0-5 1.7-6.7 7.5-6.7 1.9 0 5.6 0.3 8.3 1.1l1.2-8.3c-3-1-7-1.4-9.8-1.4-12.6 0-17.3 4.6-17.3 15.4v10.9c0 10.8 4.7 15.4 17.3 15.4z"/>
			</g>
		</g>
	</g>
	<g id="Layer">
		<g id="Layer">
			<g id="Layer">
				<path id="Layer" class="s1" d="m134.5 28.2v29.1c0 7.1 2.4 11.8 9.1 11.8 4.7 0 11-1.7 16.1-4.2l0.9 3.4h7.7v-40.1h-10v27.8c-3.7 1.9-8 3.4-10.5 3.4-2.3 0-3.2-1.1-3.2-3.2v-28z"/>
			</g>
		</g>
	</g>
	<g id="Layer">
		<g id="Layer">
			<g id="Layer">
				<path id="Layer" class="s1" d="m189.9 68.3v-57.9l-10.1 1.4v56.5z"/>
			</g>
		</g>
	</g>
	<g id="Layer">
		<g id="Layer">
			<g id="Layer">
				<path id="Layer" fill-rule="evenodd" class="s1" d="m231.2 68.3h-8.3l-0.7-2.7c-3.6 2.4-7.9 3.5-11.9 3.5-7.4 0-10.5-5-10.5-11.9 0-8.2 3.5-11.3 11.7-11.3h9.6v-4.2c0-4.5-1.2-6-7.6-6-3.7 0-7.6 0.5-11.2 1.2l-1.2-7.7c3.8-1.1 9.3-1.8 13.8-1.8 12.6 0 16.3 4.4 16.3 14.5zm-10.1-15.2h-7.4c-3.3 0-4.2 0.9-4.2 3.9 0 2.8 0.9 4.1 4.1 4.1 2.9 0 5.6-1 7.5-2.1z"/>
			</g>
		</g>
	</g>
	<g id="Layer">
		<g id="Layer">
			<g id="Layer">
				<path id="Layer" class="s1" d="m262.1 59.9c-1.7 0.5-3.6 0.8-5 0.8-2.7 0-3.7-1.4-3.7-3.5v-21h9.7l0.6-8h-10.3v-11.4l-10 1.4v10h-6v8h6v22.3c0 7.2 3.7 10.6 11 10.6 2.6 0 6.7-0.6 8.8-1.5z"/>
			</g>
		</g>
	</g>
	<g id="Layer">
		<g id="Layer">
			<g id="Layer">
				<path id="Layer" fill-rule="evenodd" class="s1" d="m287.2 60.9c3.9 0 7.9-0.6 12.3-1.9l1.6 7.6c-4.6 1.7-10 2.5-14.8 2.5-12.6 0-17-5.8-17-15.5v-10.6c0-8.5 3.8-15.6 16.7-15.6 12.8 0 15.7 7.5 15.7 16.1v8.6h-22.3v2c0 4.9 1.7 6.8 7.8 6.8zm-7.8-16.9h12.8v-2c0-3.8-1.2-6.4-6.1-6.4-5 0-6.7 2.6-6.7 6.4z"/>
			</g>
		</g>
	</g>
</svg>