<svg xmlns="http://www.w3.org/2000/svg" xmlns:xlink="http://www.w3.org/1999/xlink" width="500" zoomAndPan="magnify" viewBox="0 0 375 374.999991" height="500" preserveAspectRatio="xMidYMid meet" version="1.0"><defs><clipPath id="d72e3f7053"><path d="M 26.460938 35 L 348 35 L 348 366 L 26.460938 366 Z M 26.460938 35 " clip-rule="nonzero"/></clipPath></defs><g clip-path="url(#d72e3f7053)"><path fill="#93deff" d="M 26.460938 167.144531 C 28.070312 163.203125 29.511719 159.179688 31.292969 155.316406 C 44.695312 126.261719 65.140625 103.375 92.398438 86.777344 C 122.027344 68.742188 154.15625 61.011719 188.808594 64.976562 C 212.546875 67.691406 234.519531 75.542969 253.699219 89.820312 C 295.566406 120.992188 316.464844 162.503906 313.347656 215.183594 C 312.273438 233.371094 306.789062 250.417969 297.894531 266.285156 C 285.101562 289.09375 266.921875 306.394531 243.589844 318.15625 C 219.011719 330.542969 193.039062 334.886719 166.046875 329.160156 C 128.210938 321.128906 101.175781 298.988281 85.207031 263.773438 C 75.644531 242.683594 73.453125 220.589844 78.703125 197.9375 C 88.457031 155.882812 124.292969 127.527344 161.613281 123.417969 C 180.027344 121.390625 197.589844 124.289062 213.414062 133.886719 C 241.789062 151.09375 256.667969 176.226562 254.734375 209.949219 C 253.726562 227.515625 246.421875 242.671875 233.332031 254.488281 C 215.054688 270.984375 194.007812 277.390625 169.960938 269.363281 C 146.710938 261.605469 131.808594 237.25 135.085938 214.753906 C 137.679688 196.988281 152.277344 182.683594 170.160156 181.296875 C 181.332031 180.429688 192.289062 187.410156 195.90625 197.988281 C 196.796875 200.59375 196.4375 204.785156 196.042969 206.855469 L 195.394531 205.273438 C 190.070312 193.328125 171.664062 192.332031 163.289062 201.492188 C 158.515625 206.714844 156.734375 212.800781 156.898438 219.75 C 157.226562 233.664062 167.378906 245.695312 181.046875 248.101562 C 196.082031 250.742188 208.578125 245.703125 218.730469 234.859375 C 231.867188 220.835938 234.203125 199.007812 225.234375 180.878906 C 211.335938 152.789062 179.863281 141.511719 151.441406 150.925781 C 117.96875 162.011719 97.496094 194.203125 101.492188 229.464844 C 104.253906 253.839844 115.789062 273.597656 135.25 288.371094 C 164.574219 310.625 205.15625 312.296875 237.53125 293.070312 C 274.765625 270.957031 294.140625 230.355469 287.476562 187.484375 C 283.128906 159.5 269.976562 136.070312 248.5 117.722656 C 219.492188 92.941406 185.679688 84.339844 148.480469 91.582031 C 109.777344 99.117188 80.273438 120.457031 60.472656 154.207031 C 44.523438 181.394531 39.046875 213.351562 44.539062 244.394531 C 50.769531 279.59375 67.929688 308.5625 95.117188 331.394531 C 116.949219 349.722656 142.21875 360.351562 170.523438 363.925781 C 187.625 366.085938 204.550781 365.214844 221.3125 361.523438 C 245.207031 356.265625 266.890625 346.097656 285.988281 330.765625 C 325.191406 299.296875 345.464844 258.167969 347.488281 208.058594 C 348.1875 190.746094 345.605469 173.742188 340.738281 157.101562 C 332.980469 130.59375 319.800781 107.09375 301.027344 86.898438 C 300.71875 86.570312 300.410156 86.238281 300.101562 85.914062 C 227.457031 8.820312 100.828125 22.601562 47.417969 114.101562 C 30.859375 142.464844 26.460938 167.144531 26.460938 167.144531 Z M 26.460938 167.144531 " fill-opacity="1" fill-rule="nonzero"/></g></svg>